<?xml version="1.0" encoding="UTF-8" standalone="no"?>
<!-- Created with Inkscape (http://www.inkscape.org/) -->

<svg
   width="1200"
   height="512"
   viewBox="0 0 1200 512"
   version="1.1"
   id="svg1"
   sodipodi:docname="banner.svg"
   inkscape:version="1.4 (86a8ad7, 2024-10-11)"
   inkscape:export-filename="banner.png"
   inkscape:export-xdpi="96"
   inkscape:export-ydpi="96"
   xml:space="preserve"
   xmlns:inkscape="http://www.inkscape.org/namespaces/inkscape"
   xmlns:sodipodi="http://sodipodi.sourceforge.net/DTD/sodipodi-0.dtd"
   xmlns="http://www.w3.org/2000/svg"
   xmlns:svg="http://www.w3.org/2000/svg"><sodipodi:namedview
     id="namedview1"
     pagecolor="#ffffff"
     bordercolor="#000000"
     borderopacity="0.25"
     inkscape:showpageshadow="2"
     inkscape:pageopacity="0.0"
     inkscape:pagecheckerboard="0"
     inkscape:deskcolor="#d1d1d1"
     inkscape:document-units="mm"
     inkscape:zoom="0.35355339"
     inkscape:cx="564.27121"
     inkscape:cy="326.68333"
     inkscape:window-width="1920"
     inkscape:window-height="1009"
     inkscape:window-x="-8"
     inkscape:window-y="-8"
     inkscape:window-maximized="1"
     inkscape:current-layer="layer1" /><defs
     id="defs1" /><g
     inkscape:label="Layer 1"
     inkscape:groupmode="layer"
     id="layer1"
     transform="translate(-29.998906,-26.681957)"><g
       inkscape:label="Layer 1"
       id="layer1-8"
       transform="translate(29.998906,26.681957)"><path
         id="rect6"
         style="fill:#868686;fill-opacity:1;stroke-width:1.10105"
         d="m 373.41726,105.99999 c 18.05069,0 32.58275,14.53206 32.58275,32.58275 v 76.93977 c 0,18.05069 -14.53206,32.58275 -32.58275,32.58275 h -62.1541 -14.78567 -32.58275 v -32.58275 -14.78567 -62.1541 c 0,-18.05069 14.53206,-32.58275 32.58275,-32.58275 z" /><path
         id="rect6-1"
         style="fill:#868686;fill-opacity:1;stroke-width:1.10105"
         d="m 248.10526,263.89473 v 32.58276 14.78566 62.1541 c 0,18.05069 -14.53206,32.58276 -32.58275,32.58276 h -76.93977 c -18.05069,0 -32.58275,-14.53207 -32.58275,-32.58276 v -76.93976 c 0,-18.05069 14.53206,-32.58276 32.58275,-32.58276 h 62.1541 14.78567 z" /><path
         id="rect6-1-2"
         style="fill:#4e4e4e;fill-opacity:1;stroke-width:0.856374"
         d="m 349.07925,263.89473 c 14.03942,0 25.34181,11.30239 25.34181,25.34181 v 59.84271 c 0,14.03942 -11.30237,25.3418 -25.34181,25.3418 h -59.84271 c -14.03942,0 -25.3418,-11.30238 -25.3418,-25.3418 v -37.8161 -22.02661 -25.34181 h 25.3418 22.02662 z" /><path
         id="rect6-1-2-8"
         style="fill:#4e4e4e;fill-opacity:1;stroke-width:0.856374"
         d="m 222.76346,137.57895 c 14.03942,0 25.3418,11.30237 25.3418,25.34179 v 37.8161 22.02662 25.3418 h -25.3418 -22.02662 -37.81609 c -14.03942,0 -25.34181,-11.30238 -25.34181,-25.3418 v -59.84272 c 0,-14.03942 11.30239,-25.34179 25.34181,-25.34179 z" /><rect
         style="fill:#333333;fill-opacity:0;stroke-width:1.11284"
         id="rect7"
         width="512"
         height="20"
         x="5.6843419e-14"
         y="246" /><rect
         style="fill:#444444;fill-opacity:0;stroke-width:1.11284"
         id="rect7-3"
         width="512"
         height="20"
         x="-5.3290705e-14"
         y="-266"
         transform="rotate(90)" /></g><text
       xml:space="preserve"
       style="font-size:230px;text-align:start;writing-mode:lr-tb;direction:ltr;text-anchor:start;fill:none;stroke:#e5e5e5;stroke-width:0.678"
       x="495.45895"
       y="367.19122"
       id="text2"><tspan
         sodipodi:role="line"
         id="tspan1"
         x="495.45895"
         y="367.19122"
         style="font-style:normal;font-variant:normal;font-weight:bold;font-stretch:normal;font-size:230px;font-family:'Neue Haas Grotesk Text Pro';-inkscape-font-specification:'Neue Haas Grotesk Text Pro Bold';fill:#343434;fill-opacity:1">Toolix</tspan></text></g></svg>
