<?xml version="1.0" encoding="UTF-8" standalone="no"?>
<!-- Created with Inkscape (http://www.inkscape.org/) -->

<svg
   width="1600"
   height="512"
   viewBox="0 0 1600 512"
   version="1.1"
   id="svg1"
   sodipodi:docname="banner.svg"
   inkscape:version="1.4 (86a8ad7, 2024-10-11)"
   inkscape:export-filename="banner.png"
   inkscape:export-xdpi="96"
   inkscape:export-ydpi="96"
   xml:space="preserve"
   xmlns:inkscape="http://www.inkscape.org/namespaces/inkscape"
   xmlns:sodipodi="http://sodipodi.sourceforge.net/DTD/sodipodi-0.dtd"
   xmlns="http://www.w3.org/2000/svg"
   xmlns:svg="http://www.w3.org/2000/svg"><sodipodi:namedview
     id="namedview1"
     pagecolor="#ffffff"
     bordercolor="#000000"
     borderopacity="0.25"
     inkscape:showpageshadow="2"
     inkscape:pageopacity="0.0"
     inkscape:pagecheckerboard="0"
     inkscape:deskcolor="#d1d1d1"
     inkscape:document-units="mm"
     inkscape:zoom="2"
     inkscape:cx="662.5"
     inkscape:cy="274.25"
     inkscape:window-width="1920"
     inkscape:window-height="1009"
     inkscape:window-x="-8"
     inkscape:window-y="-8"
     inkscape:window-maximized="1"
     inkscape:current-layer="layer1" /><defs
     id="defs1" /><g
     inkscape:label="Layer 1"
     inkscape:groupmode="layer"
     id="layer1"
     transform="translate(-29.998906,-26.681957)"><g
       inkscape:label="Layer 1"
       id="layer1-8"
       transform="translate(29.998906,26.681957)"><path
         id="rect6"
         style="fill:#868686;fill-opacity:1;stroke-width:1.10105"
         d="m 373.41726,105.99999 c 18.05069,0 32.58275,14.53206 32.58275,32.58275 v 76.93977 c 0,18.05069 -14.53206,32.58275 -32.58275,32.58275 h -62.1541 -14.78567 -32.58275 v -32.58275 -14.78567 -62.1541 c 0,-18.05069 14.53206,-32.58275 32.58275,-32.58275 z" /><path
         id="rect6-1"
         style="fill:#868686;fill-opacity:1;stroke-width:1.10105"
         d="m 248.10526,263.89473 v 32.58276 14.78566 62.1541 c 0,18.05069 -14.53206,32.58276 -32.58275,32.58276 h -76.93977 c -18.05069,0 -32.58275,-14.53207 -32.58275,-32.58276 v -76.93976 c 0,-18.05069 14.53206,-32.58276 32.58275,-32.58276 h 62.1541 14.78567 z" /><path
         id="rect6-1-2"
         style="fill:#4e4e4e;fill-opacity:1;stroke-width:0.856374"
         d="m 349.07925,263.89473 c 14.03942,0 25.34181,11.30239 25.34181,25.34181 v 59.84271 c 0,14.03942 -11.30237,25.3418 -25.34181,25.3418 h -59.84271 c -14.03942,0 -25.3418,-11.30238 -25.3418,-25.3418 v -37.8161 -22.02661 -25.34181 h 25.3418 22.02662 z" /><path
         id="rect6-1-2-8"
         style="fill:#4e4e4e;fill-opacity:1;stroke-width:0.856374"
         d="m 222.76346,137.57895 c 14.03942,0 25.3418,11.30237 25.3418,25.34179 v 37.8161 22.02662 25.3418 h -25.3418 -22.02662 -37.81609 c -14.03942,0 -25.34181,-11.30238 -25.34181,-25.3418 v -59.84272 c 0,-14.03942 11.30239,-25.34179 25.34181,-25.34179 z" /><rect
         style="fill:#333333;fill-opacity:0;stroke-width:1.11284"
         id="rect7"
         width="512"
         height="20"
         x="5.6843419e-14"
         y="246" /><rect
         style="fill:#444444;fill-opacity:0;stroke-width:1.11284"
         id="rect7-3"
         width="512"
         height="20"
         x="-5.3290705e-14"
         y="-266"
         transform="rotate(90)" /></g><path
       style="font-weight:bold;font-size:240px;font-family:'Neue Haas Grotesk Text Pro';-inkscape-font-specification:'Neue Haas Grotesk Text Pro Bold';fill:#343434"
       d="m 477.34265,370.16241 64.33594,-178.59375 h 42.53906 l 64.57031,178.59375 h -43.24218 l -11.25,-34.10156 h -64.80469 l -11.01563,34.10156 z m 61.75781,-63.39843 h 45.82032 l -10.78125,-33.28125 q -3.98438,-12.30469 -6.5625,-23.08594 -2.46094,-10.89844 -3.75,-17.69531 -1.17188,-6.79688 -1.17188,-6.79688 h -0.58594 q 0,0 -1.05468,4.92188 -1.05469,4.80468 -2.8125,12.30468 -1.64063,7.5 -3.86719,15.70313 -2.10938,8.08594 -4.21875,14.64844 z m 116.60157,63.39843 45.23437,-67.5 -40.89844,-61.40625 h 43.35938 l 7.5,12.1875 q 3.28125,5.15625 6.32812,11.60157 3.16407,6.44531 5.15625,11.13281 1.99219,4.57031 1.99219,4.57031 h 0.58594 q 0,0 1.99219,-4.57031 1.99218,-4.6875 5.03906,-11.13281 3.04687,-6.44532 5.97656,-11.60157 l 7.14844,-12.1875 h 40.07812 l -39.375,60.58594 45.23438,68.32031 h -44.0625 l -9.96094,-16.40625 q -2.92969,-5.50781 -6.21094,-12.1875 -3.28125,-6.67968 -5.625,-11.48437 -2.22656,-4.92188 -2.22656,-4.92188 h -0.46875 q 0,0 -2.34375,4.92188 -2.34375,4.80469 -5.85937,11.48437 -3.39844,6.67969 -6.79688,12.1875 l -10.42969,16.40625 z m 190.19531,3.63282 q -14.64844,0 -24.72656,-5.85938 -10.07813,-5.97656 -15.35157,-16.64062 -5.15625,-10.66407 -5.15625,-24.84375 v -85.19532 h 38.08594 v 78.04688 q 0,10.66406 5.15625,16.64062 5.15625,5.85938 15.35156,5.85938 7.61719,0 13.125,-3.51563 5.625,-3.63281 8.55469,-9.84375 3.04688,-6.21093 3.04688,-14.17968 v -73.00782 h 37.5 v 128.90625 h -36.09375 v -18.51562 h -0.70313 q -4.6875,7.5 -10.3125,12.42187 -5.50781,4.92188 -12.53906,7.26563 -7.03125,2.46094 -15.9375,2.46094 z m 152.8125,-2.22657 q -11.95313,0 -21.09375,-3.04687 -9.02344,-3.04688 -14.0625,-10.42969 -5.03906,-7.38281 -5.03906,-20.39062 v -72.1875 H 939.0614 v -24.25782 h 19.45313 v -41.13281 h 37.14843 v 41.13281 h 25.19534 v 24.25782 h -25.19534 v 63.98437 q 0,7.14844 3.75,9.72656 3.86724,2.57813 10.66404,2.57813 1.875,0 4.336,-0.11719 2.4609,-0.23437 4.3359,-0.35156 h 1.875 v 28.35937 q -3.0469,0.46875 -8.6719,1.17188 -5.625,0.70312 -13.24216,0.70312 z m 102.89066,1.99219 q -20.3907,0 -35.625,-8.90625 -15.2344,-9.02344 -23.6719,-24.375 -8.4375,-15.35156 -8.4375,-34.45312 0,-19.21875 8.4375,-34.45313 8.4375,-15.35156 23.6719,-24.25781 15.2343,-8.90625 35.625,-8.90625 20.2734,0 35.3906,8.90625 15.1172,8.90625 23.4375,24.25781 8.3203,15.23438 8.3203,34.45313 0,19.10156 -8.3203,34.45312 -8.3203,15.35156 -23.4375,24.375 -15.1172,8.90625 -35.3906,8.90625 z m -0.2344,-27.42187 q 9.375,0 15.9375,-5.03907 6.5625,-5.15625 9.9609,-14.17968 3.3985,-9.14063 3.3985,-21.09375 0,-12.1875 -3.3985,-21.32813 -3.3984,-9.14062 -9.9609,-14.29687 -6.5625,-5.15625 -15.9375,-5.15625 -9.6094,0 -16.1719,5.15625 -6.4453,5.15625 -9.8437,14.29687 -3.2813,9.14063 -3.2813,21.32813 0,11.95312 3.2813,21.09375 3.3984,9.02343 9.8437,14.17968 6.5625,5.03907 16.1719,5.03907 z m 148.125,27.42187 q -20.3906,0 -35.625,-8.90625 -15.2344,-9.02344 -23.6719,-24.375 -8.4375,-15.35156 -8.4375,-34.45312 0,-19.21875 8.4375,-34.45313 8.4375,-15.35156 23.6719,-24.25781 15.2344,-8.90625 35.625,-8.90625 20.2734,0 35.3906,8.90625 15.1172,8.90625 23.4375,24.25781 8.3203,15.23438 8.3203,34.45313 0,19.10156 -8.3203,34.45312 -8.3203,15.35156 -23.4375,24.375 -15.1172,8.90625 -35.3906,8.90625 z m -0.2344,-27.42187 q 9.375,0 15.9375,-5.03907 6.5625,-5.15625 9.961,-14.17968 3.3984,-9.14063 3.3984,-21.09375 0,-12.1875 -3.3984,-21.32813 -3.3985,-9.14062 -9.961,-14.29687 -6.5625,-5.15625 -15.9375,-5.15625 -9.6094,0 -16.1719,5.15625 -6.4453,5.15625 -9.8437,14.29687 -3.2813,9.14063 -3.2813,21.32813 0,11.95312 3.2813,21.09375 3.3984,9.02343 9.8437,14.17968 6.5625,5.03907 16.1719,5.03907 z m 86.9531,24.02343 V 191.56866 h 37.8516 v 178.59375 z m 116.1329,3.51563 q -18.3985,0 -31.875,-5.50781 -13.3594,-5.50782 -20.8594,-15.35157 -7.5,-9.84375 -8.4375,-22.61718 h 35.5078 q 1.6406,9.02343 8.2031,13.94531 6.6797,4.80469 17.6953,4.80469 10.0782,0 15.586,-3.86719 5.5078,-3.98438 5.5078,-10.78125 0,-5.74219 -4.5703,-8.55469 -4.4532,-2.92969 -11.9532,-4.45312 -7.3828,-1.64063 -16.289,-3.28125 -8.5547,-1.64063 -16.7578,-3.86719 -8.2032,-2.34375 -14.7657,-6.44531 -6.5625,-4.21875 -10.4296,-11.25 -3.8672,-7.14844 -3.8672,-18.28125 0,-13.125 7.1484,-21.91407 7.1484,-8.90625 19.3359,-13.35937 12.1875,-4.57031 27.1875,-4.57031 17.8125,0 29.7657,4.80468 11.9531,4.6875 18.6328,13.24219 6.6797,8.4375 8.3203,19.57031 h -35.0391 q -1.1718,-4.57031 -3.9843,-7.61718 -2.8125,-3.04688 -7.2657,-4.45313 -4.3359,-1.52344 -10.4297,-1.52344 -8.5546,0 -13.7109,3.39844 -5.1562,3.39844 -5.1562,9.49219 0,4.80469 4.2187,7.26562 4.2188,2.46094 11.25,3.86719 7.1484,1.40625 15.9375,3.04688 8.5547,1.52343 17.1094,3.86718 8.6719,2.34375 15.8203,6.79688 7.1484,4.33594 11.4844,11.95312 4.3359,7.5 4.3359,19.57032 0,13.82812 -7.5,23.20312 -7.5,9.375 -20.5078,14.17969 -13.0078,4.6875 -29.6484,4.6875 z"
       id="text1"
       aria-label="Axutools" /></g></svg>
